<svg xmlns="http://www.w3.org/2000/svg" viewBox="0 0 720 360"><title>seq vs 哈希 L2 AUC分布对比</title><rect x="60.0" y="156.8" width="33.6" height="133.2" fill="#378ADD"/><rect x="95.6" y="259.3" width="33.6" height="30.7" fill="#E24B4A"/><rect x="140.0" y="187.5" width="33.6" height="102.5" fill="#378ADD"/><rect x="175.6" y="242.9" width="33.6" height="47.1" fill="#E24B4A"/><rect x="220.0" y="148.6" width="33.6" height="141.4" fill="#378ADD"/><rect x="255.6" y="183.4" width="33.6" height="106.6" fill="#E24B4A"/><rect x="300.0" y="128.1" width="33.6" height="161.9" fill="#378ADD"/><rect x="335.6" y="140.4" width="33.6" height="149.6" fill="#E24B4A"/><rect x="380.0" y="119.9" width="33.6" height="170.1" fill="#378ADD"/><rect x="415.6" y="113.8" width="33.6" height="176.2" fill="#E24B4A"/><rect x="460.0" y="109.7" width="33.6" height="180.3" fill="#378ADD"/><rect x="495.6" y="40.0" width="33.6" height="250.0" fill="#E24B4A"/><rect x="540.0" y="228.5" width="33.6" height="61.5" fill="#378ADD"/><rect x="575.6" y="146.6" width="33.6" height="143.4" fill="#E24B4A"/><rect x="620.0" y="275.7" width="33.6" height="14.3" fill="#378ADD"/><rect x="655.6" y="228.5" width="33.6" height="61.5" fill="#E24B4A"/><line x1="60" y1="290" x2="700" y2="290" stroke="#888780"/><text x="100.0" y="308" font-size="10.5" fill="#5F5E5A" text-anchor="middle"><0.3</text><text x="180.0" y="308" font-size="10.5" fill="#5F5E5A" text-anchor="middle">0.3-0.4</text><text x="260.0" y="308" font-size="10.5" fill="#5F5E5A" text-anchor="middle">0.4-0.5</text><text x="340.0" y="308" font-size="10.5" fill="#5F5E5A" text-anchor="middle">0.5-0.6</text><text x="420.0" y="308" font-size="10.5" fill="#5F5E5A" text-anchor="middle">0.6-0.7</text><text x="500.0" y="308" font-size="10.5" fill="#5F5E5A" text-anchor="middle">0.7-0.8</text><text x="580.0" y="308" font-size="10.5" fill="#5F5E5A" text-anchor="middle">0.8-0.9</text><text x="660.0" y="308" font-size="10.5" fill="#5F5E5A" text-anchor="middle">0.9-1.0</text><text x="52" y="48" font-size="11" fill="#5F5E5A" text-anchor="end">靶点数</text><text x="380.0" y="348" font-size="12" fill="#333" text-anchor="middle">AUC 区间（471 标注靶点）</text><rect x="70" y="38" width="12" height="10" fill="#378ADD"/><text x="86" y="47" font-size="11" fill="#333">序列 L2 (seq, 旧)</text><rect x="210" y="38" width="12" height="10" fill="#E24B4A"/><text x="226" y="47" font-size="11" fill="#333">哈希 L2 (bindingdb, 新)</text></svg>