<svg xmlns="http://www.w3.org/2000/svg" viewBox="0 0 680 340" role="img">
<title>NA靶点 L2 分数全库分布坍缩</title>
<desc>100k分子L2分数直方图: 47%分子分数&gt;0.9, 34%在0.95-1.0; 18活性中位0.888与背景中位0.883几乎重合</desc>
<line x1="55" y1="280" x2="665" y2="280" stroke="#888780" stroke-width="1"/>
<rect x="55.0" y="255.7" width="28.5" height="24.3" fill="#378ADD"/><rect x="85.5" y="264.1" width="28.5" height="15.9" fill="#378ADD"/><rect x="116.0" y="266.0" width="28.5" height="14.0" fill="#378ADD"/><rect x="146.5" y="266.5" width="28.5" height="13.5" fill="#378ADD"/><rect x="177.0" y="266.9" width="28.5" height="13.1" fill="#378ADD"/><rect x="207.5" y="267.2" width="28.5" height="12.8" fill="#378ADD"/><rect x="238.0" y="266.6" width="28.5" height="13.4" fill="#378ADD"/><rect x="268.5" y="266.3" width="28.5" height="13.7" fill="#378ADD"/><rect x="299.0" y="265.8" width="28.5" height="14.2" fill="#378ADD"/><rect x="329.5" y="264.6" width="28.5" height="15.4" fill="#378ADD"/><rect x="360.0" y="263.3" width="28.5" height="16.7" fill="#85B7EB"/><rect x="390.5" y="261.5" width="28.5" height="18.5" fill="#85B7EB"/><rect x="421.0" y="259.6" width="28.5" height="20.4" fill="#85B7EB"/><rect x="451.5" y="257.9" width="28.5" height="22.1" fill="#85B7EB"/><rect x="482.0" y="253.5" width="28.5" height="26.5" fill="#85B7EB"/><rect x="512.5" y="246.7" width="28.5" height="33.3" fill="#85B7EB"/><rect x="543.0" y="237.4" width="28.5" height="42.6" fill="#EF9F27"/><rect x="573.5" y="223.1" width="28.5" height="56.9" fill="#EF9F27"/><rect x="604.0" y="186.3" width="28.5" height="93.7" fill="#E24B4A"/><rect x="634.5" y="30.0" width="28.5" height="250.0" fill="#E24B4A"/>
<line x1="593.8" y1="24" x2="593.8" y2="280" stroke="#3B6D11" stroke-width="1.5" stroke-dasharray="5 4"/>
<text x="55.0" y="298" font-size="11" fill="#5F5E5A" text-anchor="middle">0.0</text><text x="177.0" y="298" font-size="11" fill="#5F5E5A" text-anchor="middle">0.2</text><text x="299.0" y="298" font-size="11" fill="#5F5E5A" text-anchor="middle">0.4</text><text x="421.0" y="298" font-size="11" fill="#5F5E5A" text-anchor="middle">0.6</text><text x="543.0" y="298" font-size="11" fill="#5F5E5A" text-anchor="middle">0.8</text><text x="665.0" y="298" font-size="11" fill="#5F5E5A" text-anchor="middle">1.0</text>
<text x="47" y="40" font-size="11" fill="#5F5E5A" text-anchor="end">频数</text>
<text x="593.8" y="20" font-size="11" fill="#3B6D11" text-anchor="middle">背景中位 0.883</text>
<text x="665" y="320" font-size="10" fill="#A32D2D" text-anchor="end">红区=分数&gt;0.9: 47%分子(47k) — 活性被淹没其中</text>
</svg>