<svg xmlns="http://www.w3.org/2000/svg" viewBox="0 0 680 300" role="img">
<title>NA 18个活性在100k库中的L2排名散布</title>
<desc>18活性散布于5665~92602名, 几乎贯穿全库, 说明L2对NA检索近乎随机排序</desc>
<rect x="55.0" y="30.0" width="1.5" height="215.0" fill="#F3C9C9" opacity="0.55"/><rect x="55.0" y="30.0" width="3.1" height="215.0" fill="#E9D6A8" opacity="0.55"/><rect x="55.0" y="30.0" width="6.1" height="215.0" fill="#CFE0F2" opacity="0.55"/><rect x="55.0" y="30.0" width="30.5" height="215.0" fill="#BFD8EE" opacity="0.55"/>
<line x1="55" y1="30" x2="55" y2="245" stroke="#888780" stroke-width="1"/>
<line x1="55" y1="245" x2="665" y2="245" stroke="#888780" stroke-width="1"/>
<circle cx="89.6" cy="137.5" r="4" fill="#A32D2D" stroke="#fff" stroke-width="0.7"/><circle cx="205.4" cy="137.5" r="4" fill="#A32D2D" stroke="#fff" stroke-width="0.7"/><circle cx="205.5" cy="137.5" r="4" fill="#A32D2D" stroke="#fff" stroke-width="0.7"/><circle cx="227.1" cy="137.5" r="4" fill="#A32D2D" stroke="#fff" stroke-width="0.7"/><circle cx="275.7" cy="137.5" r="4" fill="#A32D2D" stroke="#fff" stroke-width="0.7"/><circle cx="282.3" cy="137.5" r="4" fill="#A32D2D" stroke="#fff" stroke-width="0.7"/><circle cx="306.0" cy="137.5" r="4" fill="#A32D2D" stroke="#fff" stroke-width="0.7"/><circle cx="332.2" cy="137.5" r="4" fill="#A32D2D" stroke="#fff" stroke-width="0.7"/><circle cx="336.8" cy="137.5" r="4" fill="#A32D2D" stroke="#fff" stroke-width="0.7"/><circle cx="372.0" cy="137.5" r="4" fill="#A32D2D" stroke="#fff" stroke-width="0.7"/><circle cx="417.3" cy="137.5" r="4" fill="#A32D2D" stroke="#fff" stroke-width="0.7"/><circle cx="433.8" cy="137.5" r="4" fill="#A32D2D" stroke="#fff" stroke-width="0.7"/><circle cx="447.5" cy="137.5" r="4" fill="#A32D2D" stroke="#fff" stroke-width="0.7"/><circle cx="449.1" cy="137.5" r="4" fill="#A32D2D" stroke="#fff" stroke-width="0.7"/><circle cx="507.0" cy="137.5" r="4" fill="#A32D2D" stroke="#fff" stroke-width="0.7"/><circle cx="545.5" cy="137.5" r="4" fill="#A32D2D" stroke="#fff" stroke-width="0.7"/><circle cx="591.9" cy="137.5" r="4" fill="#A32D2D" stroke="#fff" stroke-width="0.7"/><circle cx="619.9" cy="137.5" r="4" fill="#A32D2D" stroke="#fff" stroke-width="0.7"/>
<text x="55.0" y="263" font-size="10" fill="#5F5E5A" text-anchor="middle">0k</text><text x="116.0" y="263" font-size="10" fill="#5F5E5A" text-anchor="middle">10k</text><text x="177.0" y="263" font-size="10" fill="#5F5E5A" text-anchor="middle">20k</text><text x="238.0" y="263" font-size="10" fill="#5F5E5A" text-anchor="middle">30k</text><text x="299.0" y="263" font-size="10" fill="#5F5E5A" text-anchor="middle">40k</text><text x="360.0" y="263" font-size="10" fill="#5F5E5A" text-anchor="middle">50k</text><text x="421.0" y="263" font-size="10" fill="#5F5E5A" text-anchor="middle">60k</text><text x="482.0" y="263" font-size="10" fill="#5F5E5A" text-anchor="middle">70k</text><text x="543.0" y="263" font-size="10" fill="#5F5E5A" text-anchor="middle">80k</text><text x="604.0" y="263" font-size="10" fill="#5F5E5A" text-anchor="middle">90k</text><text x="665.0" y="263" font-size="10" fill="#5F5E5A" text-anchor="middle">100k</text>
<text x="55" y="20" font-size="11" fill="#5F5E5A">L2排名轴(榜首→榜尾)</text>
<text x="665" y="285" font-size="10" fill="#A32D2D" text-anchor="end">若 L2 top-250 接对接: 落入窗口活性 = 0/18   top-1000 = 0/18   top-5000 = 0/18</text>
<text x="55" y="285" font-size="10" fill="#3B6D11">浅蓝=top-5000窗口, 红点=18活性(中位排名49082)</text>
</svg>